<mxfile host="app.diagrams.net" modified="2020-12-23T15:47:25.056Z" agent="5.0 (Windows NT 10.0; Win64; x64) AppleWebKit/537.36 (KHTML, like Gecko) Chrome/87.0.4280.88 Safari/537.36" etag="2nn9PNCHeymGvsbS6GT1" version="13.9.6" type="github" pages="5">
  <diagram id="XSfZqVmiYcCc9-t011LT" name="generate_dataset_bySomaType">
    <mxGraphModel dx="782" dy="390" grid="1" gridSize="10" guides="1" tooltips="1" connect="1" arrows="1" fold="1" page="1" pageScale="1" pageWidth="827" pageHeight="1169" math="0" shadow="0">
      <root>
        <mxCell id="0" />
        <mxCell id="1" parent="0" />
        <mxCell id="LMvmV46aqBWlpIVHx07A-5" style="edgeStyle=orthogonalEdgeStyle;rounded=0;orthogonalLoop=1;jettySize=auto;html=1;exitX=0.5;exitY=1;exitDx=0;exitDy=0;entryX=0.5;entryY=0;entryDx=0;entryDy=0;" parent="1" source="FWvU0fq3wdAVgeDSS-kY-1" target="FWvU0fq3wdAVgeDSS-kY-7" edge="1">
          <mxGeometry relative="1" as="geometry" />
        </mxCell>
        <mxCell id="FWvU0fq3wdAVgeDSS-kY-1" value="region_1" style="rounded=0;whiteSpace=wrap;html=1;" parent="1" vertex="1">
          <mxGeometry x="110" y="130" width="120" height="60" as="geometry" />
        </mxCell>
        <mxCell id="LMvmV46aqBWlpIVHx07A-6" style="edgeStyle=orthogonalEdgeStyle;rounded=0;orthogonalLoop=1;jettySize=auto;html=1;exitX=0.5;exitY=1;exitDx=0;exitDy=0;" parent="1" source="FWvU0fq3wdAVgeDSS-kY-2" target="FWvU0fq3wdAVgeDSS-kY-8" edge="1">
          <mxGeometry relative="1" as="geometry" />
        </mxCell>
        <mxCell id="FWvU0fq3wdAVgeDSS-kY-2" value="region_2" style="rounded=0;whiteSpace=wrap;html=1;" parent="1" vertex="1">
          <mxGeometry x="300" y="130" width="120" height="60" as="geometry" />
        </mxCell>
        <mxCell id="LMvmV46aqBWlpIVHx07A-1" style="edgeStyle=orthogonalEdgeStyle;rounded=0;orthogonalLoop=1;jettySize=auto;html=1;exitX=0.5;exitY=1;exitDx=0;exitDy=0;" parent="1" source="FWvU0fq3wdAVgeDSS-kY-4" target="FWvU0fq3wdAVgeDSS-kY-1" edge="1">
          <mxGeometry relative="1" as="geometry" />
        </mxCell>
        <mxCell id="LMvmV46aqBWlpIVHx07A-2" style="edgeStyle=orthogonalEdgeStyle;rounded=0;orthogonalLoop=1;jettySize=auto;html=1;exitX=0.5;exitY=1;exitDx=0;exitDy=0;entryX=0.5;entryY=0;entryDx=0;entryDy=0;" parent="1" source="FWvU0fq3wdAVgeDSS-kY-4" target="FWvU0fq3wdAVgeDSS-kY-2" edge="1">
          <mxGeometry relative="1" as="geometry" />
        </mxCell>
        <mxCell id="LMvmV46aqBWlpIVHx07A-3" style="edgeStyle=orthogonalEdgeStyle;rounded=0;orthogonalLoop=1;jettySize=auto;html=1;exitX=0.5;exitY=1;exitDx=0;exitDy=0;entryX=0.5;entryY=0;entryDx=0;entryDy=0;" parent="1" source="FWvU0fq3wdAVgeDSS-kY-4" target="FWvU0fq3wdAVgeDSS-kY-5" edge="1">
          <mxGeometry relative="1" as="geometry" />
        </mxCell>
        <mxCell id="LMvmV46aqBWlpIVHx07A-4" style="edgeStyle=orthogonalEdgeStyle;rounded=0;orthogonalLoop=1;jettySize=auto;html=1;exitX=0.5;exitY=1;exitDx=0;exitDy=0;" parent="1" source="FWvU0fq3wdAVgeDSS-kY-4" target="FWvU0fq3wdAVgeDSS-kY-6" edge="1">
          <mxGeometry relative="1" as="geometry" />
        </mxCell>
        <mxCell id="FWvU0fq3wdAVgeDSS-kY-4" value="manual swc&lt;br&gt;/&lt;br&gt;brain image" style="rounded=0;whiteSpace=wrap;html=1;" parent="1" vertex="1">
          <mxGeometry x="380" y="10" width="120" height="60" as="geometry" />
        </mxCell>
        <mxCell id="LMvmV46aqBWlpIVHx07A-7" style="edgeStyle=orthogonalEdgeStyle;rounded=0;orthogonalLoop=1;jettySize=auto;html=1;exitX=0.5;exitY=1;exitDx=0;exitDy=0;entryX=0.5;entryY=0;entryDx=0;entryDy=0;" parent="1" source="FWvU0fq3wdAVgeDSS-kY-5" target="FWvU0fq3wdAVgeDSS-kY-9" edge="1">
          <mxGeometry relative="1" as="geometry" />
        </mxCell>
        <mxCell id="FWvU0fq3wdAVgeDSS-kY-5" value="..." style="rounded=0;whiteSpace=wrap;html=1;" parent="1" vertex="1">
          <mxGeometry x="474" y="130" width="120" height="60" as="geometry" />
        </mxCell>
        <mxCell id="LMvmV46aqBWlpIVHx07A-9" style="edgeStyle=orthogonalEdgeStyle;rounded=0;orthogonalLoop=1;jettySize=auto;html=1;exitX=0.5;exitY=1;exitDx=0;exitDy=0;entryX=0.5;entryY=0;entryDx=0;entryDy=0;" parent="1" source="FWvU0fq3wdAVgeDSS-kY-6" target="FWvU0fq3wdAVgeDSS-kY-10" edge="1">
          <mxGeometry relative="1" as="geometry" />
        </mxCell>
        <mxCell id="FWvU0fq3wdAVgeDSS-kY-6" value="region_n" style="rounded=0;whiteSpace=wrap;html=1;" parent="1" vertex="1">
          <mxGeometry x="640" y="130" width="120" height="60" as="geometry" />
        </mxCell>
        <mxCell id="FWvU0fq3wdAVgeDSS-kY-7" value="signalMaskType_1&lt;br&gt;dataset" style="rounded=0;whiteSpace=wrap;html=1;" parent="1" vertex="1">
          <mxGeometry x="110" y="270" width="120" height="60" as="geometry" />
        </mxCell>
        <mxCell id="FWvU0fq3wdAVgeDSS-kY-8" value="signalMaskType_2&lt;br&gt;dataset" style="rounded=0;whiteSpace=wrap;html=1;" parent="1" vertex="1">
          <mxGeometry x="300" y="270" width="120" height="60" as="geometry" />
        </mxCell>
        <mxCell id="FWvU0fq3wdAVgeDSS-kY-9" value="..." style="rounded=0;whiteSpace=wrap;html=1;" parent="1" vertex="1">
          <mxGeometry x="474" y="270" width="120" height="60" as="geometry" />
        </mxCell>
        <mxCell id="FWvU0fq3wdAVgeDSS-kY-10" value="signalMaskType_N&lt;br&gt;dataset" style="rounded=0;whiteSpace=wrap;html=1;" parent="1" vertex="1">
          <mxGeometry x="640" y="270" width="120" height="60" as="geometry" />
        </mxCell>
      </root>
    </mxGraphModel>
  </diagram>
  <diagram id="GUsvb8xQqvXVlNLX2x7V" name="train_bySomaType">
    <mxGraphModel dx="920" dy="459" grid="1" gridSize="10" guides="1" tooltips="1" connect="1" arrows="1" fold="1" page="1" pageScale="1" pageWidth="827" pageHeight="1169" math="0" shadow="0">
      <root>
        <mxCell id="sldGnyoUiYQ4ol7-71CF-0" />
        <mxCell id="sldGnyoUiYQ4ol7-71CF-1" parent="sldGnyoUiYQ4ol7-71CF-0" />
        <mxCell id="ewqFLUgI93k1M33mBG3B-4" style="edgeStyle=orthogonalEdgeStyle;rounded=0;orthogonalLoop=1;jettySize=auto;html=1;exitX=1;exitY=0.5;exitDx=0;exitDy=0;entryX=0;entryY=0.5;entryDx=0;entryDy=0;" parent="sldGnyoUiYQ4ol7-71CF-1" source="UcZH1NKE0_x_xQNGaMS6-1" target="ewqFLUgI93k1M33mBG3B-0" edge="1">
          <mxGeometry relative="1" as="geometry" />
        </mxCell>
        <mxCell id="UcZH1NKE0_x_xQNGaMS6-1" value="signalMaskType_1&lt;br&gt;training dataset" style="ellipse;whiteSpace=wrap;html=1;fillColor=#f8cecc;strokeColor=#b85450;" parent="sldGnyoUiYQ4ol7-71CF-1" vertex="1">
          <mxGeometry x="60" y="30" width="120" height="80" as="geometry" />
        </mxCell>
        <mxCell id="ewqFLUgI93k1M33mBG3B-5" style="edgeStyle=orthogonalEdgeStyle;rounded=0;orthogonalLoop=1;jettySize=auto;html=1;exitX=1;exitY=0.5;exitDx=0;exitDy=0;entryX=0;entryY=0.5;entryDx=0;entryDy=0;" parent="sldGnyoUiYQ4ol7-71CF-1" source="ewqFLUgI93k1M33mBG3B-0" target="ewqFLUgI93k1M33mBG3B-1" edge="1">
          <mxGeometry relative="1" as="geometry" />
        </mxCell>
        <mxCell id="htrydnhKTusf8zTvh69y-28" style="edgeStyle=orthogonalEdgeStyle;rounded=0;orthogonalLoop=1;jettySize=auto;html=1;exitX=0.5;exitY=0;exitDx=0;exitDy=0;entryX=0.5;entryY=0;entryDx=0;entryDy=0;" parent="sldGnyoUiYQ4ol7-71CF-1" source="ewqFLUgI93k1M33mBG3B-0" target="htrydnhKTusf8zTvh69y-27" edge="1">
          <mxGeometry relative="1" as="geometry" />
        </mxCell>
        <mxCell id="ewqFLUgI93k1M33mBG3B-0" value="segmentation model&lt;br&gt;best init" style="rounded=0;whiteSpace=wrap;html=1;" parent="sldGnyoUiYQ4ol7-71CF-1" vertex="1">
          <mxGeometry x="260" y="40" width="120" height="60" as="geometry" />
        </mxCell>
        <mxCell id="ewqFLUgI93k1M33mBG3B-6" style="edgeStyle=orthogonalEdgeStyle;rounded=0;orthogonalLoop=1;jettySize=auto;html=1;exitX=1;exitY=0.5;exitDx=0;exitDy=0;entryX=0;entryY=0.5;entryDx=0;entryDy=0;" parent="sldGnyoUiYQ4ol7-71CF-1" source="ewqFLUgI93k1M33mBG3B-1" target="ewqFLUgI93k1M33mBG3B-2" edge="1">
          <mxGeometry relative="1" as="geometry" />
        </mxCell>
        <mxCell id="ewqFLUgI93k1M33mBG3B-1" value="image after segmentation" style="ellipse;whiteSpace=wrap;html=1;" parent="sldGnyoUiYQ4ol7-71CF-1" vertex="1">
          <mxGeometry x="430" y="30" width="120" height="80" as="geometry" />
        </mxCell>
        <mxCell id="htrydnhKTusf8zTvh69y-29" style="edgeStyle=orthogonalEdgeStyle;rounded=0;orthogonalLoop=1;jettySize=auto;html=1;exitX=0.5;exitY=1;exitDx=0;exitDy=0;entryX=0.5;entryY=1;entryDx=0;entryDy=0;" parent="sldGnyoUiYQ4ol7-71CF-1" source="ewqFLUgI93k1M33mBG3B-2" target="ewqFLUgI93k1M33mBG3B-0" edge="1">
          <mxGeometry relative="1" as="geometry" />
        </mxCell>
        <mxCell id="ewqFLUgI93k1M33mBG3B-2" value="Dice difference" style="rounded=0;whiteSpace=wrap;html=1;" parent="sldGnyoUiYQ4ol7-71CF-1" vertex="1">
          <mxGeometry x="600" y="40" width="120" height="60" as="geometry" />
        </mxCell>
        <mxCell id="ewqFLUgI93k1M33mBG3B-9" value="update weights" style="text;html=1;strokeColor=none;fillColor=none;align=center;verticalAlign=middle;whiteSpace=wrap;rounded=0;" parent="sldGnyoUiYQ4ol7-71CF-1" vertex="1">
          <mxGeometry x="470" y="130" width="50" height="30" as="geometry" />
        </mxCell>
        <mxCell id="htrydnhKTusf8zTvh69y-0" style="edgeStyle=orthogonalEdgeStyle;rounded=0;orthogonalLoop=1;jettySize=auto;html=1;exitX=1;exitY=0.5;exitDx=0;exitDy=0;entryX=0;entryY=0.5;entryDx=0;entryDy=0;" parent="sldGnyoUiYQ4ol7-71CF-1" source="htrydnhKTusf8zTvh69y-1" target="htrydnhKTusf8zTvh69y-3" edge="1">
          <mxGeometry relative="1" as="geometry" />
        </mxCell>
        <mxCell id="htrydnhKTusf8zTvh69y-1" value="signalMaskType_2&lt;br&gt;training dataset" style="ellipse;whiteSpace=wrap;html=1;fillColor=#f8cecc;strokeColor=#b85450;" parent="sldGnyoUiYQ4ol7-71CF-1" vertex="1">
          <mxGeometry x="60" y="200" width="120" height="80" as="geometry" />
        </mxCell>
        <mxCell id="htrydnhKTusf8zTvh69y-2" style="edgeStyle=orthogonalEdgeStyle;rounded=0;orthogonalLoop=1;jettySize=auto;html=1;exitX=1;exitY=0.5;exitDx=0;exitDy=0;entryX=0;entryY=0.5;entryDx=0;entryDy=0;" parent="sldGnyoUiYQ4ol7-71CF-1" source="htrydnhKTusf8zTvh69y-3" target="htrydnhKTusf8zTvh69y-5" edge="1">
          <mxGeometry relative="1" as="geometry" />
        </mxCell>
        <mxCell id="htrydnhKTusf8zTvh69y-33" style="edgeStyle=orthogonalEdgeStyle;rounded=0;orthogonalLoop=1;jettySize=auto;html=1;exitX=0.5;exitY=0;exitDx=0;exitDy=0;entryX=0.5;entryY=0;entryDx=0;entryDy=0;" parent="sldGnyoUiYQ4ol7-71CF-1" source="htrydnhKTusf8zTvh69y-3" target="htrydnhKTusf8zTvh69y-32" edge="1">
          <mxGeometry relative="1" as="geometry" />
        </mxCell>
        <mxCell id="htrydnhKTusf8zTvh69y-3" value="segmentation model&lt;br&gt;best init" style="rounded=0;whiteSpace=wrap;html=1;" parent="sldGnyoUiYQ4ol7-71CF-1" vertex="1">
          <mxGeometry x="260" y="210" width="120" height="60" as="geometry" />
        </mxCell>
        <mxCell id="htrydnhKTusf8zTvh69y-4" style="edgeStyle=orthogonalEdgeStyle;rounded=0;orthogonalLoop=1;jettySize=auto;html=1;exitX=1;exitY=0.5;exitDx=0;exitDy=0;entryX=0;entryY=0.5;entryDx=0;entryDy=0;" parent="sldGnyoUiYQ4ol7-71CF-1" source="htrydnhKTusf8zTvh69y-5" target="htrydnhKTusf8zTvh69y-7" edge="1">
          <mxGeometry relative="1" as="geometry" />
        </mxCell>
        <mxCell id="htrydnhKTusf8zTvh69y-5" value="image after segmentation" style="ellipse;whiteSpace=wrap;html=1;" parent="sldGnyoUiYQ4ol7-71CF-1" vertex="1">
          <mxGeometry x="430" y="200" width="120" height="80" as="geometry" />
        </mxCell>
        <mxCell id="htrydnhKTusf8zTvh69y-30" style="edgeStyle=orthogonalEdgeStyle;rounded=0;orthogonalLoop=1;jettySize=auto;html=1;exitX=0.5;exitY=1;exitDx=0;exitDy=0;entryX=0.5;entryY=1;entryDx=0;entryDy=0;" parent="sldGnyoUiYQ4ol7-71CF-1" source="htrydnhKTusf8zTvh69y-7" target="htrydnhKTusf8zTvh69y-3" edge="1">
          <mxGeometry relative="1" as="geometry" />
        </mxCell>
        <mxCell id="htrydnhKTusf8zTvh69y-7" value="Dice difference" style="rounded=0;whiteSpace=wrap;html=1;" parent="sldGnyoUiYQ4ol7-71CF-1" vertex="1">
          <mxGeometry x="600" y="210" width="120" height="60" as="geometry" />
        </mxCell>
        <mxCell id="htrydnhKTusf8zTvh69y-8" value="update weights" style="text;html=1;strokeColor=none;fillColor=none;align=center;verticalAlign=middle;whiteSpace=wrap;rounded=0;" parent="sldGnyoUiYQ4ol7-71CF-1" vertex="1">
          <mxGeometry x="470" y="300" width="50" height="30" as="geometry" />
        </mxCell>
        <mxCell id="htrydnhKTusf8zTvh69y-18" style="edgeStyle=orthogonalEdgeStyle;rounded=0;orthogonalLoop=1;jettySize=auto;html=1;exitX=1;exitY=0.5;exitDx=0;exitDy=0;entryX=0;entryY=0.5;entryDx=0;entryDy=0;" parent="sldGnyoUiYQ4ol7-71CF-1" source="htrydnhKTusf8zTvh69y-19" target="htrydnhKTusf8zTvh69y-21" edge="1">
          <mxGeometry relative="1" as="geometry" />
        </mxCell>
        <mxCell id="htrydnhKTusf8zTvh69y-19" value="signalMaskType_n&lt;br&gt;training datase" style="ellipse;whiteSpace=wrap;html=1;fillColor=#f8cecc;strokeColor=#b85450;" parent="sldGnyoUiYQ4ol7-71CF-1" vertex="1">
          <mxGeometry x="60" y="380" width="120" height="80" as="geometry" />
        </mxCell>
        <mxCell id="htrydnhKTusf8zTvh69y-20" style="edgeStyle=orthogonalEdgeStyle;rounded=0;orthogonalLoop=1;jettySize=auto;html=1;exitX=1;exitY=0.5;exitDx=0;exitDy=0;entryX=0;entryY=0.5;entryDx=0;entryDy=0;" parent="sldGnyoUiYQ4ol7-71CF-1" source="htrydnhKTusf8zTvh69y-21" target="htrydnhKTusf8zTvh69y-23" edge="1">
          <mxGeometry relative="1" as="geometry" />
        </mxCell>
        <mxCell id="htrydnhKTusf8zTvh69y-35" style="edgeStyle=orthogonalEdgeStyle;rounded=0;orthogonalLoop=1;jettySize=auto;html=1;exitX=0.5;exitY=0;exitDx=0;exitDy=0;entryX=0.5;entryY=0;entryDx=0;entryDy=0;" parent="sldGnyoUiYQ4ol7-71CF-1" source="htrydnhKTusf8zTvh69y-21" target="htrydnhKTusf8zTvh69y-34" edge="1">
          <mxGeometry relative="1" as="geometry" />
        </mxCell>
        <mxCell id="htrydnhKTusf8zTvh69y-21" value="segmentation model&lt;br&gt;best init" style="rounded=0;whiteSpace=wrap;html=1;" parent="sldGnyoUiYQ4ol7-71CF-1" vertex="1">
          <mxGeometry x="260" y="390" width="120" height="60" as="geometry" />
        </mxCell>
        <mxCell id="htrydnhKTusf8zTvh69y-22" style="edgeStyle=orthogonalEdgeStyle;rounded=0;orthogonalLoop=1;jettySize=auto;html=1;exitX=1;exitY=0.5;exitDx=0;exitDy=0;entryX=0;entryY=0.5;entryDx=0;entryDy=0;" parent="sldGnyoUiYQ4ol7-71CF-1" source="htrydnhKTusf8zTvh69y-23" target="htrydnhKTusf8zTvh69y-25" edge="1">
          <mxGeometry relative="1" as="geometry" />
        </mxCell>
        <mxCell id="htrydnhKTusf8zTvh69y-23" value="image after segmentation" style="ellipse;whiteSpace=wrap;html=1;" parent="sldGnyoUiYQ4ol7-71CF-1" vertex="1">
          <mxGeometry x="430" y="380" width="120" height="80" as="geometry" />
        </mxCell>
        <mxCell id="htrydnhKTusf8zTvh69y-31" style="edgeStyle=orthogonalEdgeStyle;rounded=0;orthogonalLoop=1;jettySize=auto;html=1;exitX=0.5;exitY=1;exitDx=0;exitDy=0;entryX=0.5;entryY=1;entryDx=0;entryDy=0;" parent="sldGnyoUiYQ4ol7-71CF-1" source="htrydnhKTusf8zTvh69y-25" target="htrydnhKTusf8zTvh69y-21" edge="1">
          <mxGeometry relative="1" as="geometry" />
        </mxCell>
        <mxCell id="htrydnhKTusf8zTvh69y-25" value="Dice difference" style="rounded=0;whiteSpace=wrap;html=1;" parent="sldGnyoUiYQ4ol7-71CF-1" vertex="1">
          <mxGeometry x="600" y="390" width="120" height="60" as="geometry" />
        </mxCell>
        <mxCell id="htrydnhKTusf8zTvh69y-26" value="update weights" style="text;html=1;strokeColor=none;fillColor=none;align=center;verticalAlign=middle;whiteSpace=wrap;rounded=0;" parent="sldGnyoUiYQ4ol7-71CF-1" vertex="1">
          <mxGeometry x="470" y="480" width="50" height="30" as="geometry" />
        </mxCell>
        <mxCell id="htrydnhKTusf8zTvh69y-27" value="best model 1" style="ellipse;whiteSpace=wrap;html=1;fillColor=#d5e8d4;strokeColor=#82b366;" parent="sldGnyoUiYQ4ol7-71CF-1" vertex="1">
          <mxGeometry x="790" y="30" width="120" height="80" as="geometry" />
        </mxCell>
        <mxCell id="htrydnhKTusf8zTvh69y-32" value="best model 2" style="ellipse;whiteSpace=wrap;html=1;fillColor=#d5e8d4;strokeColor=#82b366;" parent="sldGnyoUiYQ4ol7-71CF-1" vertex="1">
          <mxGeometry x="790" y="200" width="120" height="80" as="geometry" />
        </mxCell>
        <mxCell id="htrydnhKTusf8zTvh69y-34" value="best model n" style="ellipse;whiteSpace=wrap;html=1;fillColor=#d5e8d4;strokeColor=#82b366;" parent="sldGnyoUiYQ4ol7-71CF-1" vertex="1">
          <mxGeometry x="790" y="380" width="120" height="80" as="geometry" />
        </mxCell>
      </root>
    </mxGraphModel>
  </diagram>
  <diagram id="RgefwWOwUAAxyyYVfmkt" name="init_model">
    <mxGraphModel dx="782" dy="390" grid="1" gridSize="10" guides="1" tooltips="1" connect="1" arrows="1" fold="1" page="1" pageScale="1" pageWidth="827" pageHeight="1169" math="0" shadow="0">
      <root>
        <mxCell id="VD3mMqoj1vwdH_WhdzMg-0" />
        <mxCell id="VD3mMqoj1vwdH_WhdzMg-1" parent="VD3mMqoj1vwdH_WhdzMg-0" />
        <mxCell id="-mLOcFfME3EZcHhEUMkX-3" style="edgeStyle=orthogonalEdgeStyle;rounded=0;orthogonalLoop=1;jettySize=auto;html=1;exitX=1;exitY=0.5;exitDx=0;exitDy=0;entryX=0;entryY=0.5;entryDx=0;entryDy=0;" edge="1" parent="VD3mMqoj1vwdH_WhdzMg-1" source="xyIo0yKP5RPA_MMff71W-1" target="xyIo0yKP5RPA_MMff71W-4">
          <mxGeometry relative="1" as="geometry" />
        </mxCell>
        <mxCell id="xyIo0yKP5RPA_MMff71W-1" value="signalMaskType_n&lt;br&gt;training datase" style="ellipse;whiteSpace=wrap;html=1;fillColor=#f8cecc;strokeColor=#b85450;" vertex="1" parent="VD3mMqoj1vwdH_WhdzMg-1">
          <mxGeometry x="60" y="475" width="120" height="80" as="geometry" />
        </mxCell>
        <mxCell id="xyIo0yKP5RPA_MMff71W-2" style="edgeStyle=orthogonalEdgeStyle;rounded=0;orthogonalLoop=1;jettySize=auto;html=1;exitX=1;exitY=0.5;exitDx=0;exitDy=0;entryX=0;entryY=0.5;entryDx=0;entryDy=0;" edge="1" parent="VD3mMqoj1vwdH_WhdzMg-1" source="xyIo0yKP5RPA_MMff71W-4" target="xyIo0yKP5RPA_MMff71W-6">
          <mxGeometry relative="1" as="geometry" />
        </mxCell>
        <mxCell id="xyIo0yKP5RPA_MMff71W-3" style="edgeStyle=orthogonalEdgeStyle;rounded=0;orthogonalLoop=1;jettySize=auto;html=1;exitX=0.5;exitY=0;exitDx=0;exitDy=0;entryX=0.5;entryY=0;entryDx=0;entryDy=0;" edge="1" parent="VD3mMqoj1vwdH_WhdzMg-1" source="xyIo0yKP5RPA_MMff71W-4" target="xyIo0yKP5RPA_MMff71W-10">
          <mxGeometry relative="1" as="geometry" />
        </mxCell>
        <mxCell id="xyIo0yKP5RPA_MMff71W-4" value="segmentation model" style="rounded=0;whiteSpace=wrap;html=1;" vertex="1" parent="VD3mMqoj1vwdH_WhdzMg-1">
          <mxGeometry x="260" y="390" width="120" height="60" as="geometry" />
        </mxCell>
        <mxCell id="xyIo0yKP5RPA_MMff71W-5" style="edgeStyle=orthogonalEdgeStyle;rounded=0;orthogonalLoop=1;jettySize=auto;html=1;exitX=1;exitY=0.5;exitDx=0;exitDy=0;entryX=0;entryY=0.5;entryDx=0;entryDy=0;" edge="1" parent="VD3mMqoj1vwdH_WhdzMg-1" source="xyIo0yKP5RPA_MMff71W-6" target="xyIo0yKP5RPA_MMff71W-8">
          <mxGeometry relative="1" as="geometry" />
        </mxCell>
        <mxCell id="xyIo0yKP5RPA_MMff71W-6" value="image after segmentation" style="ellipse;whiteSpace=wrap;html=1;" vertex="1" parent="VD3mMqoj1vwdH_WhdzMg-1">
          <mxGeometry x="430" y="380" width="120" height="80" as="geometry" />
        </mxCell>
        <mxCell id="xyIo0yKP5RPA_MMff71W-7" style="edgeStyle=orthogonalEdgeStyle;rounded=0;orthogonalLoop=1;jettySize=auto;html=1;exitX=0.5;exitY=1;exitDx=0;exitDy=0;entryX=0.5;entryY=1;entryDx=0;entryDy=0;" edge="1" parent="VD3mMqoj1vwdH_WhdzMg-1" source="xyIo0yKP5RPA_MMff71W-8" target="xyIo0yKP5RPA_MMff71W-4">
          <mxGeometry relative="1" as="geometry" />
        </mxCell>
        <mxCell id="xyIo0yKP5RPA_MMff71W-8" value="Dice difference" style="rounded=0;whiteSpace=wrap;html=1;" vertex="1" parent="VD3mMqoj1vwdH_WhdzMg-1">
          <mxGeometry x="600" y="390" width="120" height="60" as="geometry" />
        </mxCell>
        <mxCell id="xyIo0yKP5RPA_MMff71W-9" value="update weights" style="text;html=1;strokeColor=none;fillColor=none;align=center;verticalAlign=middle;whiteSpace=wrap;rounded=0;" vertex="1" parent="VD3mMqoj1vwdH_WhdzMg-1">
          <mxGeometry x="470" y="480" width="50" height="30" as="geometry" />
        </mxCell>
        <mxCell id="xyIo0yKP5RPA_MMff71W-10" value="best init model" style="ellipse;whiteSpace=wrap;html=1;fillColor=#d5e8d4;strokeColor=#82b366;" vertex="1" parent="VD3mMqoj1vwdH_WhdzMg-1">
          <mxGeometry x="790" y="380" width="120" height="80" as="geometry" />
        </mxCell>
        <mxCell id="-mLOcFfME3EZcHhEUMkX-2" style="edgeStyle=orthogonalEdgeStyle;rounded=0;orthogonalLoop=1;jettySize=auto;html=1;exitX=1;exitY=0.5;exitDx=0;exitDy=0;" edge="1" parent="VD3mMqoj1vwdH_WhdzMg-1" source="0Aw7d3Itnyuss1ToNFuG-0">
          <mxGeometry relative="1" as="geometry">
            <mxPoint x="260" y="420" as="targetPoint" />
          </mxGeometry>
        </mxCell>
        <mxCell id="0Aw7d3Itnyuss1ToNFuG-0" value="signalMaskType_2&lt;br&gt;training dataset" style="ellipse;whiteSpace=wrap;html=1;fillColor=#f8cecc;strokeColor=#b85450;" vertex="1" parent="VD3mMqoj1vwdH_WhdzMg-1">
          <mxGeometry x="60" y="380" width="120" height="80" as="geometry" />
        </mxCell>
        <mxCell id="-mLOcFfME3EZcHhEUMkX-1" style="edgeStyle=orthogonalEdgeStyle;rounded=0;orthogonalLoop=1;jettySize=auto;html=1;exitX=1;exitY=0.5;exitDx=0;exitDy=0;entryX=0;entryY=0.5;entryDx=0;entryDy=0;" edge="1" parent="VD3mMqoj1vwdH_WhdzMg-1" source="-mLOcFfME3EZcHhEUMkX-0" target="xyIo0yKP5RPA_MMff71W-4">
          <mxGeometry relative="1" as="geometry" />
        </mxCell>
        <mxCell id="-mLOcFfME3EZcHhEUMkX-0" value="signalMaskType_1&lt;br&gt;training dataset" style="ellipse;whiteSpace=wrap;html=1;fillColor=#f8cecc;strokeColor=#b85450;" vertex="1" parent="VD3mMqoj1vwdH_WhdzMg-1">
          <mxGeometry x="60" y="270" width="120" height="80" as="geometry" />
        </mxCell>
      </root>
    </mxGraphModel>
  </diagram>
  <diagram id="BExjfmhiAEbvDeEuHxrT" name="test_bySomaType">
    <mxGraphModel dx="782" dy="1559" grid="1" gridSize="10" guides="1" tooltips="1" connect="1" arrows="1" fold="1" page="1" pageScale="1" pageWidth="827" pageHeight="1169" math="0" shadow="0">
      <root>
        <mxCell id="KHZpzLb3D8Ra55UTmgmI-0" />
        <mxCell id="KHZpzLb3D8Ra55UTmgmI-1" parent="KHZpzLb3D8Ra55UTmgmI-0" />
        <mxCell id="XPj-DA17XtD-EBwUVKh9-1" style="edgeStyle=orthogonalEdgeStyle;rounded=0;orthogonalLoop=1;jettySize=auto;html=1;exitX=1;exitY=0.5;exitDx=0;exitDy=0;entryX=0;entryY=0.5;entryDx=0;entryDy=0;" parent="KHZpzLb3D8Ra55UTmgmI-1" source="7oewIyDRc93hNp6v_2mt-5" target="pBiRkPBh1c-_T310hth9-5" edge="1">
          <mxGeometry relative="1" as="geometry" />
        </mxCell>
        <mxCell id="XPj-DA17XtD-EBwUVKh9-2" style="edgeStyle=orthogonalEdgeStyle;rounded=0;orthogonalLoop=1;jettySize=auto;html=1;exitX=1;exitY=0.5;exitDx=0;exitDy=0;entryX=0;entryY=0.5;entryDx=0;entryDy=0;" parent="KHZpzLb3D8Ra55UTmgmI-1" source="7oewIyDRc93hNp6v_2mt-5" target="pBiRkPBh1c-_T310hth9-4" edge="1">
          <mxGeometry relative="1" as="geometry" />
        </mxCell>
        <mxCell id="XPj-DA17XtD-EBwUVKh9-3" style="edgeStyle=orthogonalEdgeStyle;rounded=0;orthogonalLoop=1;jettySize=auto;html=1;exitX=1;exitY=0.5;exitDx=0;exitDy=0;entryX=0;entryY=0.5;entryDx=0;entryDy=0;" parent="KHZpzLb3D8Ra55UTmgmI-1" source="7oewIyDRc93hNp6v_2mt-5" target="pBiRkPBh1c-_T310hth9-3" edge="1">
          <mxGeometry relative="1" as="geometry" />
        </mxCell>
        <mxCell id="7oewIyDRc93hNp6v_2mt-5" value="segmentation model 1" style="rounded=0;whiteSpace=wrap;html=1;" parent="KHZpzLb3D8Ra55UTmgmI-1" vertex="1">
          <mxGeometry x="340" y="-90" width="130" height="60" as="geometry" />
        </mxCell>
        <mxCell id="pBiRkPBh1c-_T310hth9-2" style="edgeStyle=orthogonalEdgeStyle;rounded=0;orthogonalLoop=1;jettySize=auto;html=1;exitX=1;exitY=0.5;exitDx=0;exitDy=0;entryX=0;entryY=0.5;entryDx=0;entryDy=0;" parent="KHZpzLb3D8Ra55UTmgmI-1" source="C9fBzO6eH5lxA3IUXb4p-0" target="7oewIyDRc93hNp6v_2mt-5" edge="1">
          <mxGeometry relative="1" as="geometry" />
        </mxCell>
        <mxCell id="C9fBzO6eH5lxA3IUXb4p-0" value="signalMaskType_n&lt;br&gt;test dataset" style="ellipse;whiteSpace=wrap;html=1;fillColor=#f8cecc;strokeColor=#b85450;" parent="KHZpzLb3D8Ra55UTmgmI-1" vertex="1">
          <mxGeometry x="160" width="120" height="80" as="geometry" />
        </mxCell>
        <mxCell id="pBiRkPBh1c-_T310hth9-1" style="edgeStyle=orthogonalEdgeStyle;rounded=0;orthogonalLoop=1;jettySize=auto;html=1;exitX=1;exitY=0.5;exitDx=0;exitDy=0;" parent="KHZpzLb3D8Ra55UTmgmI-1" source="C9fBzO6eH5lxA3IUXb4p-1" edge="1">
          <mxGeometry relative="1" as="geometry">
            <mxPoint x="340" y="-60" as="targetPoint" />
          </mxGeometry>
        </mxCell>
        <mxCell id="C9fBzO6eH5lxA3IUXb4p-1" value="signalMaskType_2&lt;br&gt;test dataset" style="ellipse;whiteSpace=wrap;html=1;fillColor=#f8cecc;strokeColor=#b85450;" parent="KHZpzLb3D8Ra55UTmgmI-1" vertex="1">
          <mxGeometry x="160" y="-100" width="120" height="80" as="geometry" />
        </mxCell>
        <mxCell id="pBiRkPBh1c-_T310hth9-0" style="edgeStyle=orthogonalEdgeStyle;rounded=0;orthogonalLoop=1;jettySize=auto;html=1;exitX=1;exitY=0.5;exitDx=0;exitDy=0;entryX=0;entryY=0.5;entryDx=0;entryDy=0;" parent="KHZpzLb3D8Ra55UTmgmI-1" source="qP0eMwyzSkDt0vsnOaOD-0" target="7oewIyDRc93hNp6v_2mt-5" edge="1">
          <mxGeometry relative="1" as="geometry" />
        </mxCell>
        <mxCell id="qP0eMwyzSkDt0vsnOaOD-0" value="signalMaskType_1&lt;br&gt;test dataset" style="ellipse;whiteSpace=wrap;html=1;fillColor=#f8cecc;strokeColor=#b85450;" parent="KHZpzLb3D8Ra55UTmgmI-1" vertex="1">
          <mxGeometry x="160" y="-200" width="120" height="80" as="geometry" />
        </mxCell>
        <mxCell id="pBiRkPBh1c-_T310hth9-3" value="Dice 1n" style="ellipse;whiteSpace=wrap;html=1;fillColor=#dae8fc;strokeColor=#6c8ebf;" parent="KHZpzLb3D8Ra55UTmgmI-1" vertex="1">
          <mxGeometry x="510" width="120" height="80" as="geometry" />
        </mxCell>
        <mxCell id="pBiRkPBh1c-_T310hth9-4" value="Dice12" style="ellipse;whiteSpace=wrap;html=1;fillColor=#dae8fc;strokeColor=#6c8ebf;" parent="KHZpzLb3D8Ra55UTmgmI-1" vertex="1">
          <mxGeometry x="510" y="-100" width="120" height="80" as="geometry" />
        </mxCell>
        <mxCell id="pBiRkPBh1c-_T310hth9-5" value="Dice 11" style="ellipse;whiteSpace=wrap;html=1;fillColor=#dae8fc;strokeColor=#6c8ebf;" parent="KHZpzLb3D8Ra55UTmgmI-1" vertex="1">
          <mxGeometry x="510" y="-200" width="120" height="80" as="geometry" />
        </mxCell>
        <mxCell id="XPj-DA17XtD-EBwUVKh9-17" style="edgeStyle=orthogonalEdgeStyle;rounded=0;orthogonalLoop=1;jettySize=auto;html=1;exitX=1;exitY=0.5;exitDx=0;exitDy=0;entryX=0;entryY=0.5;entryDx=0;entryDy=0;" parent="KHZpzLb3D8Ra55UTmgmI-1" source="XPj-DA17XtD-EBwUVKh9-20" target="XPj-DA17XtD-EBwUVKh9-29" edge="1">
          <mxGeometry relative="1" as="geometry" />
        </mxCell>
        <mxCell id="XPj-DA17XtD-EBwUVKh9-18" style="edgeStyle=orthogonalEdgeStyle;rounded=0;orthogonalLoop=1;jettySize=auto;html=1;exitX=1;exitY=0.5;exitDx=0;exitDy=0;entryX=0;entryY=0.5;entryDx=0;entryDy=0;" parent="KHZpzLb3D8Ra55UTmgmI-1" source="XPj-DA17XtD-EBwUVKh9-20" target="XPj-DA17XtD-EBwUVKh9-28" edge="1">
          <mxGeometry relative="1" as="geometry" />
        </mxCell>
        <mxCell id="XPj-DA17XtD-EBwUVKh9-19" style="edgeStyle=orthogonalEdgeStyle;rounded=0;orthogonalLoop=1;jettySize=auto;html=1;exitX=1;exitY=0.5;exitDx=0;exitDy=0;entryX=0;entryY=0.5;entryDx=0;entryDy=0;" parent="KHZpzLb3D8Ra55UTmgmI-1" source="XPj-DA17XtD-EBwUVKh9-20" target="XPj-DA17XtD-EBwUVKh9-27" edge="1">
          <mxGeometry relative="1" as="geometry" />
        </mxCell>
        <mxCell id="XPj-DA17XtD-EBwUVKh9-20" value="segmentation model n" style="rounded=0;whiteSpace=wrap;html=1;" parent="KHZpzLb3D8Ra55UTmgmI-1" vertex="1">
          <mxGeometry x="850" y="-90" width="130" height="60" as="geometry" />
        </mxCell>
        <mxCell id="XPj-DA17XtD-EBwUVKh9-21" style="edgeStyle=orthogonalEdgeStyle;rounded=0;orthogonalLoop=1;jettySize=auto;html=1;exitX=1;exitY=0.5;exitDx=0;exitDy=0;entryX=0;entryY=0.5;entryDx=0;entryDy=0;" parent="KHZpzLb3D8Ra55UTmgmI-1" source="XPj-DA17XtD-EBwUVKh9-22" target="XPj-DA17XtD-EBwUVKh9-20" edge="1">
          <mxGeometry relative="1" as="geometry" />
        </mxCell>
        <mxCell id="XPj-DA17XtD-EBwUVKh9-22" value="signalMaskType_n&lt;br&gt;test dataset" style="ellipse;whiteSpace=wrap;html=1;fillColor=#f8cecc;strokeColor=#b85450;" parent="KHZpzLb3D8Ra55UTmgmI-1" vertex="1">
          <mxGeometry x="670" width="120" height="80" as="geometry" />
        </mxCell>
        <mxCell id="XPj-DA17XtD-EBwUVKh9-23" style="edgeStyle=orthogonalEdgeStyle;rounded=0;orthogonalLoop=1;jettySize=auto;html=1;exitX=1;exitY=0.5;exitDx=0;exitDy=0;" parent="KHZpzLb3D8Ra55UTmgmI-1" source="XPj-DA17XtD-EBwUVKh9-24" edge="1">
          <mxGeometry relative="1" as="geometry">
            <mxPoint x="850" y="-60" as="targetPoint" />
          </mxGeometry>
        </mxCell>
        <mxCell id="XPj-DA17XtD-EBwUVKh9-24" value="signalMaskType_2&lt;br&gt;test dataset" style="ellipse;whiteSpace=wrap;html=1;fillColor=#f8cecc;strokeColor=#b85450;" parent="KHZpzLb3D8Ra55UTmgmI-1" vertex="1">
          <mxGeometry x="670" y="-100" width="120" height="80" as="geometry" />
        </mxCell>
        <mxCell id="XPj-DA17XtD-EBwUVKh9-25" style="edgeStyle=orthogonalEdgeStyle;rounded=0;orthogonalLoop=1;jettySize=auto;html=1;exitX=1;exitY=0.5;exitDx=0;exitDy=0;entryX=0;entryY=0.5;entryDx=0;entryDy=0;" parent="KHZpzLb3D8Ra55UTmgmI-1" source="XPj-DA17XtD-EBwUVKh9-26" target="XPj-DA17XtD-EBwUVKh9-20" edge="1">
          <mxGeometry relative="1" as="geometry" />
        </mxCell>
        <mxCell id="XPj-DA17XtD-EBwUVKh9-26" value="signalMaskType_1&lt;br&gt;test dataset" style="ellipse;whiteSpace=wrap;html=1;fillColor=#f8cecc;strokeColor=#b85450;" parent="KHZpzLb3D8Ra55UTmgmI-1" vertex="1">
          <mxGeometry x="670" y="-200" width="120" height="80" as="geometry" />
        </mxCell>
        <mxCell id="XPj-DA17XtD-EBwUVKh9-27" value="Dice nn" style="ellipse;whiteSpace=wrap;html=1;fillColor=#dae8fc;strokeColor=#6c8ebf;" parent="KHZpzLb3D8Ra55UTmgmI-1" vertex="1">
          <mxGeometry x="1020" width="120" height="80" as="geometry" />
        </mxCell>
        <mxCell id="XPj-DA17XtD-EBwUVKh9-28" value="Dicen2" style="ellipse;whiteSpace=wrap;html=1;fillColor=#dae8fc;strokeColor=#6c8ebf;" parent="KHZpzLb3D8Ra55UTmgmI-1" vertex="1">
          <mxGeometry x="1020" y="-100" width="120" height="80" as="geometry" />
        </mxCell>
        <mxCell id="XPj-DA17XtD-EBwUVKh9-29" value="Dice n1" style="ellipse;whiteSpace=wrap;html=1;fillColor=#dae8fc;strokeColor=#6c8ebf;" parent="KHZpzLb3D8Ra55UTmgmI-1" vertex="1">
          <mxGeometry x="1020" y="-200" width="120" height="80" as="geometry" />
        </mxCell>
      </root>
    </mxGraphModel>
  </diagram>
  <diagram id="A3jibBHlpHZRnaGnAypK" name="whole_algorithm">
    <mxGraphModel dx="782" dy="390" grid="1" gridSize="10" guides="1" tooltips="1" connect="1" arrows="1" fold="1" page="1" pageScale="1" pageWidth="827" pageHeight="1169" math="0" shadow="0">
      <root>
        <mxCell id="GtKOIV6Vs7kEqPqabzI_-0" />
        <mxCell id="GtKOIV6Vs7kEqPqabzI_-1" parent="GtKOIV6Vs7kEqPqabzI_-0" />
        <mxCell id="GtKOIV6Vs7kEqPqabzI_-9" style="edgeStyle=orthogonalEdgeStyle;rounded=0;orthogonalLoop=1;jettySize=auto;html=1;exitX=0.5;exitY=1;exitDx=0;exitDy=0;entryX=0.5;entryY=0;entryDx=0;entryDy=0;" parent="GtKOIV6Vs7kEqPqabzI_-1" source="GtKOIV6Vs7kEqPqabzI_-2" target="GtKOIV6Vs7kEqPqabzI_-4" edge="1">
          <mxGeometry relative="1" as="geometry" />
        </mxCell>
        <mxCell id="GtKOIV6Vs7kEqPqabzI_-2" value="soma position" style="ellipse;whiteSpace=wrap;html=1;" parent="GtKOIV6Vs7kEqPqabzI_-1" vertex="1">
          <mxGeometry x="220" y="20" width="120" height="80" as="geometry" />
        </mxCell>
        <mxCell id="GtKOIV6Vs7kEqPqabzI_-10" style="edgeStyle=orthogonalEdgeStyle;rounded=0;orthogonalLoop=1;jettySize=auto;html=1;exitX=0.5;exitY=1;exitDx=0;exitDy=0;entryX=0.5;entryY=0;entryDx=0;entryDy=0;" parent="GtKOIV6Vs7kEqPqabzI_-1" source="GtKOIV6Vs7kEqPqabzI_-3" target="GtKOIV6Vs7kEqPqabzI_-4" edge="1">
          <mxGeometry relative="1" as="geometry" />
        </mxCell>
        <mxCell id="GtKOIV6Vs7kEqPqabzI_-3" value="brain image" style="ellipse;whiteSpace=wrap;html=1;" parent="GtKOIV6Vs7kEqPqabzI_-1" vertex="1">
          <mxGeometry x="370" y="20" width="120" height="80" as="geometry" />
        </mxCell>
        <mxCell id="GtKOIV6Vs7kEqPqabzI_-13" style="edgeStyle=orthogonalEdgeStyle;rounded=0;orthogonalLoop=1;jettySize=auto;html=1;exitX=0.5;exitY=1;exitDx=0;exitDy=0;entryX=0.5;entryY=0;entryDx=0;entryDy=0;" parent="GtKOIV6Vs7kEqPqabzI_-1" source="GtKOIV6Vs7kEqPqabzI_-4" target="GtKOIV6Vs7kEqPqabzI_-5" edge="1">
          <mxGeometry relative="1" as="geometry" />
        </mxCell>
        <mxCell id="GtKOIV6Vs7kEqPqabzI_-14" style="edgeStyle=orthogonalEdgeStyle;rounded=0;orthogonalLoop=1;jettySize=auto;html=1;exitX=0.5;exitY=1;exitDx=0;exitDy=0;entryX=0.5;entryY=0;entryDx=0;entryDy=0;" parent="GtKOIV6Vs7kEqPqabzI_-1" source="GtKOIV6Vs7kEqPqabzI_-4" target="GtKOIV6Vs7kEqPqabzI_-6" edge="1">
          <mxGeometry relative="1" as="geometry" />
        </mxCell>
        <mxCell id="GtKOIV6Vs7kEqPqabzI_-15" style="edgeStyle=orthogonalEdgeStyle;rounded=0;orthogonalLoop=1;jettySize=auto;html=1;exitX=0.5;exitY=1;exitDx=0;exitDy=0;entryX=0.5;entryY=0;entryDx=0;entryDy=0;" parent="GtKOIV6Vs7kEqPqabzI_-1" source="GtKOIV6Vs7kEqPqabzI_-4" target="GtKOIV6Vs7kEqPqabzI_-8" edge="1">
          <mxGeometry relative="1" as="geometry" />
        </mxCell>
        <mxCell id="GtKOIV6Vs7kEqPqabzI_-16" style="edgeStyle=orthogonalEdgeStyle;rounded=0;orthogonalLoop=1;jettySize=auto;html=1;exitX=0.5;exitY=1;exitDx=0;exitDy=0;entryX=0.5;entryY=0;entryDx=0;entryDy=0;" parent="GtKOIV6Vs7kEqPqabzI_-1" source="GtKOIV6Vs7kEqPqabzI_-4" target="GtKOIV6Vs7kEqPqabzI_-7" edge="1">
          <mxGeometry relative="1" as="geometry" />
        </mxCell>
        <mxCell id="GtKOIV6Vs7kEqPqabzI_-4" value="soma(tips) type" style="rhombus;whiteSpace=wrap;html=1;" parent="GtKOIV6Vs7kEqPqabzI_-1" vertex="1">
          <mxGeometry x="280" y="150" width="140" height="80" as="geometry" />
        </mxCell>
        <mxCell id="9Rfq4LWTvFOR0xxUsxaI-4" style="edgeStyle=orthogonalEdgeStyle;rounded=0;orthogonalLoop=1;jettySize=auto;html=1;exitX=0.5;exitY=1;exitDx=0;exitDy=0;" parent="GtKOIV6Vs7kEqPqabzI_-1" source="GtKOIV6Vs7kEqPqabzI_-5" target="9Rfq4LWTvFOR0xxUsxaI-0" edge="1">
          <mxGeometry relative="1" as="geometry" />
        </mxCell>
        <mxCell id="GtKOIV6Vs7kEqPqabzI_-5" value="model 1" style="rounded=0;whiteSpace=wrap;html=1;fillColor=#f8cecc;strokeColor=#b85450;" parent="GtKOIV6Vs7kEqPqabzI_-1" vertex="1">
          <mxGeometry x="60" y="310" width="120" height="60" as="geometry" />
        </mxCell>
        <mxCell id="9Rfq4LWTvFOR0xxUsxaI-5" style="edgeStyle=orthogonalEdgeStyle;rounded=0;orthogonalLoop=1;jettySize=auto;html=1;exitX=0.5;exitY=1;exitDx=0;exitDy=0;entryX=0.5;entryY=0;entryDx=0;entryDy=0;" parent="GtKOIV6Vs7kEqPqabzI_-1" source="GtKOIV6Vs7kEqPqabzI_-6" target="9Rfq4LWTvFOR0xxUsxaI-0" edge="1">
          <mxGeometry relative="1" as="geometry" />
        </mxCell>
        <mxCell id="GtKOIV6Vs7kEqPqabzI_-6" value="model 2" style="rounded=0;whiteSpace=wrap;html=1;fillColor=#f8cecc;strokeColor=#b85450;" parent="GtKOIV6Vs7kEqPqabzI_-1" vertex="1">
          <mxGeometry x="220" y="310" width="120" height="60" as="geometry" />
        </mxCell>
        <mxCell id="9Rfq4LWTvFOR0xxUsxaI-7" style="edgeStyle=orthogonalEdgeStyle;rounded=0;orthogonalLoop=1;jettySize=auto;html=1;exitX=0.5;exitY=1;exitDx=0;exitDy=0;entryX=0.5;entryY=0;entryDx=0;entryDy=0;" parent="GtKOIV6Vs7kEqPqabzI_-1" source="GtKOIV6Vs7kEqPqabzI_-7" target="9Rfq4LWTvFOR0xxUsxaI-0" edge="1">
          <mxGeometry relative="1" as="geometry" />
        </mxCell>
        <mxCell id="GtKOIV6Vs7kEqPqabzI_-7" value="model n" style="rounded=0;whiteSpace=wrap;html=1;fillColor=#f8cecc;strokeColor=#b85450;" parent="GtKOIV6Vs7kEqPqabzI_-1" vertex="1">
          <mxGeometry x="550" y="310" width="120" height="60" as="geometry" />
        </mxCell>
        <mxCell id="9Rfq4LWTvFOR0xxUsxaI-6" style="edgeStyle=orthogonalEdgeStyle;rounded=0;orthogonalLoop=1;jettySize=auto;html=1;exitX=0.5;exitY=1;exitDx=0;exitDy=0;entryX=0.5;entryY=0;entryDx=0;entryDy=0;" parent="GtKOIV6Vs7kEqPqabzI_-1" source="GtKOIV6Vs7kEqPqabzI_-8" target="9Rfq4LWTvFOR0xxUsxaI-0" edge="1">
          <mxGeometry relative="1" as="geometry" />
        </mxCell>
        <mxCell id="GtKOIV6Vs7kEqPqabzI_-8" value="..." style="rounded=0;whiteSpace=wrap;html=1;fillColor=#f8cecc;strokeColor=#b85450;" parent="GtKOIV6Vs7kEqPqabzI_-1" vertex="1">
          <mxGeometry x="380" y="310" width="120" height="60" as="geometry" />
        </mxCell>
        <mxCell id="GtKOIV6Vs7kEqPqabzI_-17" value="belong type 1" style="text;html=1;strokeColor=none;fillColor=none;align=center;verticalAlign=middle;whiteSpace=wrap;rounded=0;" parent="GtKOIV6Vs7kEqPqabzI_-1" vertex="1">
          <mxGeometry x="110" y="240" width="40" height="20" as="geometry" />
        </mxCell>
        <mxCell id="GtKOIV6Vs7kEqPqabzI_-18" value="belong type 2" style="text;html=1;strokeColor=none;fillColor=none;align=center;verticalAlign=middle;whiteSpace=wrap;rounded=0;" parent="GtKOIV6Vs7kEqPqabzI_-1" vertex="1">
          <mxGeometry x="260" y="240" width="40" height="20" as="geometry" />
        </mxCell>
        <mxCell id="GtKOIV6Vs7kEqPqabzI_-20" value="belong type ..." style="text;html=1;strokeColor=none;fillColor=none;align=center;verticalAlign=middle;whiteSpace=wrap;rounded=0;" parent="GtKOIV6Vs7kEqPqabzI_-1" vertex="1">
          <mxGeometry x="420" y="240" width="40" height="20" as="geometry" />
        </mxCell>
        <mxCell id="GtKOIV6Vs7kEqPqabzI_-21" value="belong type n" style="text;html=1;strokeColor=none;fillColor=none;align=center;verticalAlign=middle;whiteSpace=wrap;rounded=0;" parent="GtKOIV6Vs7kEqPqabzI_-1" vertex="1">
          <mxGeometry x="590" y="240" width="40" height="20" as="geometry" />
        </mxCell>
        <mxCell id="9Rfq4LWTvFOR0xxUsxaI-9" style="edgeStyle=orthogonalEdgeStyle;rounded=0;orthogonalLoop=1;jettySize=auto;html=1;exitX=0.5;exitY=1;exitDx=0;exitDy=0;entryX=0.5;entryY=0;entryDx=0;entryDy=0;" parent="GtKOIV6Vs7kEqPqabzI_-1" source="9Rfq4LWTvFOR0xxUsxaI-0" target="9Rfq4LWTvFOR0xxUsxaI-8" edge="1">
          <mxGeometry relative="1" as="geometry" />
        </mxCell>
        <mxCell id="9Rfq4LWTvFOR0xxUsxaI-0" value="after segmentation image block" style="ellipse;whiteSpace=wrap;html=1;" parent="GtKOIV6Vs7kEqPqabzI_-1" vertex="1">
          <mxGeometry x="290" y="430" width="120" height="80" as="geometry" />
        </mxCell>
        <mxCell id="9Rfq4LWTvFOR0xxUsxaI-3" style="edgeStyle=orthogonalEdgeStyle;rounded=0;orthogonalLoop=1;jettySize=auto;html=1;exitX=0.5;exitY=0;exitDx=0;exitDy=0;entryX=0.5;entryY=0.5;entryDx=0;entryDy=0;entryPerimeter=0;" parent="GtKOIV6Vs7kEqPqabzI_-1" source="GtKOIV6Vs7kEqPqabzI_-17" target="GtKOIV6Vs7kEqPqabzI_-17" edge="1">
          <mxGeometry relative="1" as="geometry" />
        </mxCell>
        <mxCell id="9Rfq4LWTvFOR0xxUsxaI-11" style="edgeStyle=orthogonalEdgeStyle;rounded=0;orthogonalLoop=1;jettySize=auto;html=1;exitX=0.5;exitY=1;exitDx=0;exitDy=0;" parent="GtKOIV6Vs7kEqPqabzI_-1" source="9Rfq4LWTvFOR0xxUsxaI-8" target="9Rfq4LWTvFOR0xxUsxaI-10" edge="1">
          <mxGeometry relative="1" as="geometry" />
        </mxCell>
        <mxCell id="9Rfq4LWTvFOR0xxUsxaI-8" value="tracing algorithm" style="rounded=0;whiteSpace=wrap;html=1;" parent="GtKOIV6Vs7kEqPqabzI_-1" vertex="1">
          <mxGeometry x="290" y="560" width="120" height="60" as="geometry" />
        </mxCell>
        <mxCell id="9Rfq4LWTvFOR0xxUsxaI-10" value="swc" style="ellipse;whiteSpace=wrap;html=1;" parent="GtKOIV6Vs7kEqPqabzI_-1" vertex="1">
          <mxGeometry x="290" y="650" width="120" height="80" as="geometry" />
        </mxCell>
      </root>
    </mxGraphModel>
  </diagram>
</mxfile>
